<?xml version="1.0" encoding="UTF-8"?>
<svg id="Lag_1" data-name="Lag 1" xmlns="http://www.w3.org/2000/svg" xmlns:xlink="http://www.w3.org/1999/xlink" viewBox="0 0 191.99 203.6">
  <defs>
    <style>
      .cls-1 {
        clip-path: url(#clippath);
      }

      .cls-2 {
        stroke-width: 0px;
      }

      .cls-2, .cls-3 {
        fill: none;
      }

      .cls-4 {
        clip-path: url(#clippath-1);
      }

      .cls-3 {
        stroke: #263472;
        stroke-miterlimit: 10;
        stroke-width: .5px;
      }
    </style>
    <clipPath id="clippath">
      <path class="cls-2" d="m96,43.53c-31.93,0-57.82,25.88-57.82,57.82h115.63c0-31.93-25.88-57.82-57.82-57.82,0,0,.01,0,.01,0Z"/>
    </clipPath>
    <clipPath id="clippath-1">
      <path class="cls-2" d="m96,159.18c20.92,0,39.24-11.11,49.39-27.74H46.61c10.16,16.64,28.47,27.74,49.39,27.74Z"/>
    </clipPath>
  </defs>
  <g>
    <path class="cls-3" d="m50.58,109.56c-.29-.72-.66-.9-1.61-.99v-.19h3.79v.19c-.72.11-1.25.1-1.25.54,0,.11.03.25.11.45l4.96,12.51,4.83-12.59c.03-.11.06-.24.06-.32,0-.54-.8-.53-1.58-.61v-.19h3.79v.19c-.99.1-1.36.27-1.63.97l-5.37,13.62h-.59l-5.53-13.6h0l.02.02Z"/>
    <path class="cls-3" d="m64.69,122.97c1.25-.18,1.46-.33,1.46-1.26v-11.87c0-.96-.25-1.09-1.46-1.26v-.19h8.85c.1,1.07.39,1.65.68,3.02h-.19c-.48-1.76-1.07-2.43-2.24-2.43h-4.18c-.54,0-.59.37-.59.88v5.08h2.43c1.17,0,1.76-.69,2.24-1.65h.19c-.29.59-.68,1.17-.68,1.95s.39,1.36.68,1.95h-.19c-.48-.97-1.07-1.65-2.24-1.65h-2.43v6.2c0,.56.08.88.59.88h4.38c1.17,0,1.76-.68,2.24-2.43h.19c-.29,1.36-.59,1.95-.69,3.02h-9.04v-.24Z"/>
    <path class="cls-3" d="m76.61,122.97c1.34-.19,1.46-.35,1.46-1.26v-12.02c0-.69-.16-.93-1.46-1.11v-.19h5.53c2.94,0,4.98,1.63,4.98,4.12,0,2.06-1.4,4.2-4.12,4.2-.37,0-.74-.03-1.17-.24l3.68,5.51c.48.66,1.05.93,2,.99v.19h-4.19v-.19c.7-.11,1.31-.14,1.31-.53,0-.11-.03-.27-.18-.46l-4.57-7.24,4.11-3.58h.11c-.72.74-2.08,2.08-2.53,3.25-.11.29-.18.61-.18.89,0,.25.03.48.18.66.29.39.91.43,1.25.43,2.65,0,3.26-2.45,3.26-4.01,0-2.06-1.11-3.61-4.01-3.61h-2.53c-.48,0-.61.24-.61.91v12.02c0,.91.16,1.07,1.46,1.26v.19h-3.79v-.19h.01Z"/>
    <path class="cls-3" d="m88.68,122.97c.99-.1,1.34-.27,1.63-.97l5.66-13.78h.59l5.98,13.76c.32.72.66.89,1.61.99v.19h-3.79v-.19c.72-.11,1.25-.1,1.25-.53,0-.11-.03-.27-.11-.46l-2.33-5.48h-5.96l-2.24,5.56c-.06.14-.08.24-.08.33,0,.53.82.51,1.6.59v.19h-3.79v-.19h-.02Zm10.02-7.06l-2.83-6.6-2.65,6.6h5.48Z"/>
    <path class="cls-3" d="m105.14,122.97c1.34-.19,1.46-.35,1.46-1.26v-11.87c0-.89-.11-1.07-1.46-1.26v-.19h2.35l7.08,12.24v-10.77c0-.89-.11-1.07-1.46-1.26v-.19h3.79v.19c-1.31.19-1.46.33-1.46,1.26v13.33h-.48l-7.48-13.01v11.56c0,.93.14,1.07,1.44,1.26v.19h-3.79v-.21h.01Z"/>
    <path class="cls-3" d="m118.18,122.97c1.34-.19,1.46-.39,1.46-1.26v-12.02c0-.69-.16-.93-1.46-1.11v-.19h5.07c4.28,0,6.9,2.49,6.9,7.53,0,3.95-2.62,7.26-6.89,7.26h-5.08v-.19h0v-.02Zm4.51-.19c3.99,0,6.42-3.55,6.42-6.77,0-4.92-2.43-7.24-6.42-7.24h-1.58c-.48,0-.61.24-.61.91v12.02c0,.88.21,1.07,1.46,1.07h.73Z"/>
    <path class="cls-3" d="m128.84,122.97c.99-.1,1.34-.27,1.63-.97l5.66-13.78h.59l5.98,13.76c.32.72.66.89,1.61.99v.19h-3.79v-.19c.72-.11,1.25-.1,1.25-.53,0-.11-.03-.27-.11-.46l-2.33-5.48h-5.96l-2.24,5.56c-.06.14-.08.24-.08.33,0,.53.82.51,1.6.59v.19h-3.79v-.19h-.02Zm10.21-7.06l-2.83-6.6-2.65,6.6h5.48Z"/>
  </g>
  <g>
    <g>
      <g class="cls-1">
        <g>
          <circle class="cls-3" cx="96" cy="94.93" r="24.84"/>
          <path class="cls-3" d="m89.53,70.94c-.7-3.9,3.52-4.65,2.84-8.53s-4.92-3.14-5.62-7.04,3.52-4.65,2.84-8.55-4.92-3.14-5.62-7.04,3.52-4.65,2.84-8.55-4.92-3.14-5.62-7.03,3.52-4.65,2.83-8.55-4.92-3.14-5.62-7.05,3.52-4.65,2.83-8.56"/>
          <path class="cls-3" d="m81.93,74.46c-1.98-3.42,1.27-5.31-.71-8.74s-5.25-1.53-7.23-4.95,1.27-5.31-.71-8.74-5.25-1.53-7.23-4.95,1.27-5.31-.71-8.74-5.25-1.53-7.23-4.94,1.27-5.31-.71-8.74-5.25-1.53-7.24-4.95,1.27-5.31-.72-8.75"/>
          <path class="cls-3" d="m75.92,80.34c-3.04-2.53-.89-5.1-3.93-7.63s-5.18.03-8.22-2.5-.89-5.1-3.93-7.63-5.18.03-8.22-2.5-.89-5.1-3.93-7.64-5.18.03-8.22-2.5-.89-5.1-3.93-7.64-5.18.03-8.22-2.51-.9-5.11-3.94-7.64"/>
          <path class="cls-3" d="m72,88.44c-3.72-1.34-2.33-5.2-6.05-6.54s-5.11,2.51-8.84,1.17-2.33-5.2-6.05-6.54-5.11,2.51-8.84,1.17-2.33-5.2-6.05-6.54-5.11,2.51-8.83,1.17-2.33-5.2-6.05-6.54-5.12,2.51-8.84,1.16-2.33-5.2-6.06-6.55"/>
          <path class="cls-3" d="m71.24,97.17c-3.95,0-3.96-4.35-7.91-4.35s-3.94,4.37-7.9,4.38-3.96-4.35-7.93-4.35-3.94,4.37-7.9,4.38-3.96-4.35-7.93-4.35-3.94,4.37-7.9,4.38-3.96-4.35-7.93-4.35-3.95,4.37-7.91,4.38-3.97-4.35-7.93-4.35"/>
          <path class="cls-3" d="m73.45,105.37c-3.72,1.36-5.12-2.48-8.84-1.13s-2.31,5.2-6.02,6.56-5.12-2.48-8.84-1.11-2.31,5.2-6.02,6.56-5.12-2.48-8.84-1.11-2.31,5.2-6.01,6.56-5.12-2.48-8.84-1.11-2.31,5.2-6.02,6.56-5.12-2.48-8.85-1.11"/>
          <path class="cls-3" d="m78.13,112.16c-3.02,2.54-5.17,0-8.2,2.54s-.88,5.1-3.9,7.64-5.17,0-8.2,2.56-.88,5.1-3.9,7.64-5.17,0-8.2,2.56-.88,5.1-3.9,7.64-5.18,0-8.2,2.56-.88,5.1-3.91,7.66-5.18,0-8.21,2.56"/>
          <path class="cls-3" d="m85.3,117.34c-1.97,3.43-5.25,1.54-7.22,4.98s1.31,5.31-.66,8.75-5.25,1.54-7.22,4.98,1.31,5.31-.66,8.75-5.25,1.55-7.22,4.98,1.31,5.31-.66,8.74-5.25,1.55-7.22,4.99,1.31,5.31-.66,8.75-5.25,1.55-7.23,4.99"/>
          <path class="cls-3" d="m93.86,119.7c-.68,3.9-4.91,3.16-5.58,7.06-.67,3.9,3.56,4.63,2.87,8.53s-4.91,3.16-5.58,7.06c-.68,3.9,3.56,4.64,2.87,8.53s-4.91,3.16-5.58,7.06,3.56,4.63,2.87,8.52-4.91,3.16-5.58,7.06,3.55,4.64,2.87,8.55-4.91,3.16-5.58,7.07"/>
          <path class="cls-3" d="m102.46,118.93c.7,3.9-3.52,4.65-2.84,8.53.68,3.88,4.92,3.14,5.62,7.04s-3.52,4.65-2.84,8.55,4.92,3.14,5.62,7.04-3.52,4.65-2.84,8.55,4.92,3.14,5.62,7.03-3.52,4.65-2.83,8.55,4.92,3.14,5.62,7.05-3.52,4.65-2.83,8.56"/>
          <path class="cls-3" d="m110.05,115.41c1.98,3.42-1.27,5.31.71,8.74s5.25,1.53,7.23,4.95c1.98,3.42-1.27,5.31.71,8.74s5.25,1.53,7.23,4.95-1.27,5.31.71,8.74,5.25,1.53,7.23,4.94-1.27,5.31.71,8.74,5.25,1.53,7.24,4.95-1.27,5.31.72,8.75"/>
          <path class="cls-3" d="m116.07,109.52c3.04,2.53.89,5.1,3.93,7.63,3.04,2.53,5.18-.03,8.22,2.5s.89,5.1,3.93,7.63,5.18-.03,8.22,2.5.89,5.1,3.93,7.64,5.18-.03,8.22,2.5.89,5.1,3.93,7.64,5.18-.03,8.22,2.51.9,5.11,3.94,7.64"/>
          <path class="cls-3" d="m119.98,101.42c3.72,1.34,2.33,5.2,6.05,6.54s5.11-2.51,8.84-1.17,2.33,5.2,6.05,6.54,5.11-2.51,8.84-1.17,2.33,5.2,6.05,6.54,5.11-2.51,8.83-1.17,2.33,5.2,6.05,6.54,5.12-2.51,8.84-1.16,2.33,5.2,6.06,6.55"/>
          <path class="cls-3" d="m120.75,92.7c3.95,0,3.96,4.35,7.91,4.35s3.94-4.37,7.9-4.38,3.96,4.35,7.93,4.35,3.94-4.37,7.9-4.38,3.96,4.35,7.93,4.35,3.94-4.37,7.9-4.38,3.96,4.35,7.93,4.35,3.95-4.37,7.91-4.38,3.97,4.35,7.93,4.35"/>
          <path class="cls-3" d="m118.54,84.49c3.72-1.36,5.12,2.48,8.84,1.13s2.31-5.2,6.02-6.56,5.12,2.48,8.84,1.11,2.31-5.2,6.02-6.56,5.12,2.48,8.84,1.11,2.31-5.2,6.01-6.56,5.12,2.48,8.84,1.11,2.31-5.2,6.02-6.56,5.12,2.48,8.85,1.11"/>
          <path class="cls-3" d="m113.85,77.7c3.02-2.54,5.17,0,8.2-2.54,3.03-2.54.88-5.1,3.9-7.64s5.17,0,8.2-2.56.88-5.1,3.9-7.64,5.17,0,8.2-2.56.88-5.1,3.9-7.64,5.18,0,8.2-2.56.88-5.1,3.91-7.66,5.18,0,8.21-2.56"/>
          <path class="cls-3" d="m106.69,72.52c1.97-3.43,5.25-1.54,7.22-4.98s-1.31-5.31.66-8.75,5.25-1.54,7.22-4.98-1.31-5.31.66-8.75,5.25-1.55,7.22-4.98-1.31-5.31.66-8.74,5.25-1.55,7.22-4.99-1.31-5.31.66-8.75,5.25-1.55,7.23-4.99"/>
          <path class="cls-3" d="m98.12,70.17c.68-3.9,4.91-3.16,5.58-7.06s-3.56-4.63-2.87-8.53,4.91-3.16,5.58-7.06-3.56-4.64-2.87-8.53,4.91-3.16,5.58-7.06-3.56-4.63-2.87-8.52,4.91-3.16,5.58-7.06-3.55-4.64-2.87-8.55,4.91-3.16,5.58-7.07"/>
        </g>
      </g>
      <path class="cls-3" d="m96,43.53c-31.93,0-57.82,25.88-57.82,57.82h115.63c0-31.93-25.88-57.82-57.82-57.82,0,0,.01,0,.01,0Z"/>
    </g>
    <g>
      <g class="cls-4">
        <g>
          <line class="cls-3" x1="98.95" y1="111.75" x2="111.3" y2="203.47"/>
          <line class="cls-3" x1="104.72" y1="110.18" x2="140.39" y2="195.58"/>
          <line class="cls-3" x1="109.89" y1="107.18" x2="166.45" y2="180.43"/>
          <line class="cls-3" x1="126.88" y1="112.74" x2="186.73" y2="157.74"/>
          <line class="cls-3" x1="64.3" y1="112.15" x2="3.63" y2="156.03"/>
          <line class="cls-3" x1="81.99" y1="107.27" x2="25.87" y2="180.85"/>
          <line class="cls-3" x1="87.18" y1="110.24" x2="52.02" y2="195.85"/>
          <line class="cls-3" x1="92.97" y1="111.77" x2="81.16" y2="203.56"/>
        </g>
      </g>
      <path class="cls-3" d="m96,159.18c20.92,0,39.24-11.11,49.39-27.74H46.61c10.16,16.64,28.47,27.74,49.39,27.74Z"/>
    </g>
    <line class="cls-3" x1="153.58" y1="101.36" x2="37.95" y2="101.36"/>
    <line class="cls-3" x1="46.37" y1="131.43" x2="145.15" y2="131.43"/>
  </g>
  <circle class="cls-3" cx="96" cy="101.36" r="57.82"/>
</svg>