<?xml version="1.0" encoding="utf-8"?>
<!-- Generator: Adobe Illustrator 28.0.0, SVG Export Plug-In . SVG Version: 6.00 Build 0)  -->
<svg version="1.1" id="Lag_2_00000034069989945446628000000008504357620828831874_"
	 xmlns="http://www.w3.org/2000/svg" xmlns:xlink="http://www.w3.org/1999/xlink" x="0px" y="0px" viewBox="0 0 1920 1080"
	 style="enable-background:new 0 0 1920 1080;" xml:space="preserve">
<style type="text/css">
	.st0{fill:none;stroke:#000D3F;stroke-miterlimit:10;}
</style>
<line class="st0" x1="960.4" y1="1080" x2="960.4" y2="978.5"/>
<line class="st0" x1="960.4" y1="100.5" x2="960.4" y2="-1"/>
<line class="st0" x1="866" y1="978.5" x2="845.9" y2="1078.5"/>
<line class="st0" x1="1063.5" y1="-1.5" x2="1042.9" y2="100.5"/>
<line class="st0" x1="772.2" y1="978.5" x2="730.8" y2="1078.5"/>
<line class="st0" x1="1177.4" y1="-0.5" x2="1135.6" y2="100.5"/>
<line class="st0" x1="669" y1="978.5" x2="604.2" y2="1078.5"/>
<line class="st0" x1="1302.6" y1="-0.5" x2="1237.2" y2="100.5"/>
<line class="st0" x1="547.9" y1="978.5" x2="456.2" y2="1078.5"/>
<line class="st0" x1="1445.6" y1="-0.5" x2="1353" y2="100.5"/>
<line class="st0" x1="397.5" y1="978.5" x2="271.5" y2="1078.5"/>
<line class="st0" x1="1631.6" y1="-0.5" x2="1504.2" y2="100.5"/>
<line class="st0" x1="188.6" y1="978.5" x2="14.7" y2="1078.5"/>
<line class="st0" x1="1890.9" y1="-0.5" x2="1715.3" y2="100.5"/>
<line class="st0" x1="104.5" y1="880.9" x2="0.8" y2="922.5"/>
<line class="st0" x1="1920" y1="152.5" x2="1797.3" y2="201.7"/>
<line class="st0" x1="104.5" y1="757.9" x2="0.8" y2="784.5"/>
<line class="st0" x1="1920" y1="292.5" x2="1797.3" y2="324"/>
<line class="st0" x1="104.5" y1="646.3" x2="-0.5" y2="659.5"/>
<line class="st0" x1="1920" y1="417.5" x2="1797.3" y2="433"/>
<line class="st0" x1="104.5" y1="539.5" x2="-0.5" y2="539.5"/>
<line class="st0" x1="1920" y1="538.5" x2="1798.5" y2="538.6"/>
<line class="st0" x1="104.5" y1="434.5" x2="0.8" y2="421.5"/>
<line class="st0" x1="1920" y1="661.5" x2="1798.5" y2="646.3"/>
<line class="st0" x1="104.5" y1="321.1" x2="0.8" y2="294.5"/>
<line class="st0" x1="1920" y1="786.5" x2="1798.5" y2="755"/>
<line class="st0" x1="104.5" y1="200.1" x2="0.8" y2="158.5"/>
<line class="st0" x1="1920" y1="928.5" x2="1798.5" y2="879.8"/>
<line class="st0" x1="188" y1="100.5" x2="12.1" y2="-0.5"/>
<line class="st0" x1="1890.9" y1="1078.5" x2="1716.8" y2="978.5"/>
<line class="st0" x1="398.8" y1="100.5" x2="271.5" y2="-0.5"/>
<line class="st0" x1="1631.6" y1="1078.5" x2="1505.5" y2="978.5"/>
<line class="st0" x1="551.1" y1="100.5" x2="458.8" y2="-0.5"/>
<line class="st0" x1="1445.6" y1="1078.5" x2="1354.1" y2="978.5"/>
<line class="st0" x1="668.9" y1="100.5" x2="604.2" y2="-0.5"/>
<line class="st0" x1="1295" y1="1078.5" x2="1231" y2="978.5"/>
<line class="st0" x1="774.6" y1="100.5" x2="733.3" y2="-0.5"/>
<line class="st0" x1="1174.8" y1="1078.5" x2="1133.9" y2="978.5"/>
<line class="st0" x1="866.2" y1="100.5" x2="845.9" y2="-1.5"/>
<line class="st0" x1="1061" y1="1078.5" x2="1041.1" y2="978.5"/>
<rect x="104.5" y="100.5" class="st0" width="1694" height="878"/>
</svg>
