<?xml version="1.0" encoding="utf-8"?>
<!-- Generator: Adobe Illustrator 28.0.0, SVG Export Plug-In . SVG Version: 6.00 Build 0)  -->
<svg version="1.1" id="Lag_2_00000129909543977149847410000004917456355572781732_"
	 xmlns="http://www.w3.org/2000/svg" xmlns:xlink="http://www.w3.org/1999/xlink" x="0px" y="0px" viewBox="0 0 390 844"
	 style="enable-background:new 0 0 390 844;" xml:space="preserve">
<style type="text/css">
	.st0{fill:none;stroke:#000D3F;stroke-miterlimit:10;}
</style>
<line class="st0" x1="390" y1="421.7" x2="353.4" y2="421.7"/>
<line class="st0" x1="36.8" y1="421.7" x2="0.2" y2="421.7"/>
<line class="st0" x1="353.4" y1="463.2" x2="389.5" y2="472"/>
<line class="st0" x1="0" y1="376.4" x2="36.8" y2="385.4"/>
<line class="st0" x1="353.4" y1="504.4" x2="389.5" y2="522.6"/>
<line class="st0" x1="0.4" y1="326.4" x2="36.8" y2="344.7"/>
<line class="st0" x1="353.4" y1="549.8" x2="389.5" y2="578.2"/>
<line class="st0" x1="0.4" y1="271.3" x2="36.8" y2="300"/>
<line class="st0" x1="353.4" y1="603" x2="389.5" y2="643.3"/>
<line class="st0" x1="0.4" y1="208.5" x2="36.8" y2="249.2"/>
<line class="st0" x1="353.4" y1="669.1" x2="389.5" y2="724.5"/>
<line class="st0" x1="0.4" y1="126.8" x2="36.8" y2="182.7"/>
<line class="st0" x1="353.4" y1="760.9" x2="389.5" y2="837.3"/>
<line class="st0" x1="0.4" y1="12.8" x2="36.8" y2="90"/>
<line class="st0" x1="318.2" y1="797.8" x2="333.2" y2="843.4"/>
<line class="st0" x1="55.5" y1="0" x2="73.3" y2="53.9"/>
<line class="st0" x1="273.9" y1="797.8" x2="283.4" y2="843.4"/>
<line class="st0" x1="106" y1="0" x2="117.4" y2="53.9"/>
<line class="st0" x1="233.6" y1="797.8" x2="238.4" y2="844"/>
<line class="st0" x1="151.1" y1="0" x2="156.7" y2="53.9"/>
<line class="st0" x1="195.1" y1="797.8" x2="195.1" y2="844"/>
<line class="st0" x1="194.7" y1="0" x2="194.8" y2="53.9"/>
<line class="st0" x1="157.2" y1="797.8" x2="152.5" y2="843.4"/>
<line class="st0" x1="239.1" y1="0" x2="233.6" y2="53.9"/>
<line class="st0" x1="116.3" y1="797.8" x2="106.7" y2="843.4"/>
<line class="st0" x1="284.2" y1="0" x2="272.8" y2="53.9"/>
<line class="st0" x1="72.7" y1="797.8" x2="57.7" y2="843.4"/>
<line class="st0" x1="335.4" y1="0" x2="317.6" y2="53.9"/>
<line class="st0" x1="36.8" y1="761.2" x2="0.4" y2="838.4"/>
<line class="st0" x1="389.5" y1="12.8" x2="353.4" y2="89.3"/>
<line class="st0" x1="36.8" y1="668.5" x2="0.4" y2="724.5"/>
<line class="st0" x1="389.5" y1="126.8" x2="353.4" y2="182.2"/>
<line class="st0" x1="36.8" y1="601.6" x2="0.4" y2="642.2"/>
<line class="st0" x1="389.5" y1="208.5" x2="353.4" y2="248.7"/>
<line class="st0" x1="36.8" y1="549.8" x2="0.4" y2="578.2"/>
<line class="st0" x1="389.5" y1="274.7" x2="353.4" y2="302.8"/>
<line class="st0" x1="36.8" y1="503.4" x2="0.4" y2="521.5"/>
<line class="st0" x1="389.5" y1="327.5" x2="353.4" y2="345.5"/>
<line class="st0" x1="36.8" y1="463.1" x2="0" y2="472"/>
<line class="st0" x1="389.5" y1="377.5" x2="353.4" y2="386.3"/>
<rect x="36.4" y="53.4" class="st0" width="316.6" height="743.9"/>
</svg>
