<?xml version="1.0" encoding="UTF-8"?>
<svg id="Lag_2" data-name="Lag 2" xmlns="http://www.w3.org/2000/svg" viewBox="0 0 390.12 844.21">
  <defs>
    <style>
      .cls-1 {
        fill: none;
        stroke: #000d3f;
        stroke-miterlimit: 10;
      }
    </style>
  </defs>
  <line class="cls-1" x1="390.12" y1="421.88" x2="353.52" y2="421.88"/>
  <line class="cls-1" x1="36.9" y1="421.88" x2=".3" y2="421.88"/>
  <line class="cls-1" x1="353.52" y1="463.34" x2="389.58" y2="472.2"/>
  <line class="cls-1" x1=".12" y1="376.57" x2="36.9" y2="385.6"/>
  <line class="cls-1" x1="353.52" y1="504.6" x2="389.58" y2="522.8"/>
  <line class="cls-1" x1=".48" y1="326.53" x2="36.9" y2="344.9"/>
  <line class="cls-1" x1="353.52" y1="549.95" x2="389.58" y2="578.39"/>
  <line class="cls-1" x1=".48" y1="271.49" x2="36.9" y2="300.21"/>
  <line class="cls-1" x1="353.52" y1="603.15" x2="389.58" y2="643.45"/>
  <line class="cls-1" x1=".48" y1="208.66" x2="36.9" y2="249.36"/>
  <line class="cls-1" x1="353.52" y1="669.23" x2="389.58" y2="724.62"/>
  <line class="cls-1" x1=".48" y1="126.93" x2="36.9" y2="182.88"/>
  <line class="cls-1" x1="353.52" y1="761.07" x2="389.58" y2="837.49"/>
  <line class="cls-1" x1=".48" y1="12.95" x2="36.9" y2="90.13"/>
  <line class="cls-1" x1="318.32" y1="798.01" x2="333.32" y2="843.6"/>
  <line class="cls-1" x1="55.65" y1=".16" x2="73.41" y2="54.09"/>
  <line class="cls-1" x1="273.97" y1="798.01" x2="283.56" y2="843.6"/>
  <line class="cls-1" x1="106.14" y1=".16" x2="117.48" y2="54.09"/>
  <line class="cls-1" x1="233.71" y1="798.01" x2="238.48" y2="844.16"/>
  <line class="cls-1" x1="151.22" y1=".16" x2="156.79" y2="54.09"/>
  <line class="cls-1" x1="195.19" y1="798.01" x2="195.21" y2="844.16"/>
  <line class="cls-1" x1="194.85" y1=".16" x2="194.87" y2="54.09"/>
  <line class="cls-1" x1="157.34" y1="798.01" x2="152.66" y2="843.6"/>
  <line class="cls-1" x1="239.2" y1=".16" x2="233.67" y2="54.09"/>
  <line class="cls-1" x1="116.45" y1="798.01" x2="106.86" y2="843.6"/>
  <line class="cls-1" x1="284.28" y1=".16" x2="272.94" y2="54.09"/>
  <line class="cls-1" x1="72.83" y1="798.01" x2="57.82" y2="843.6"/>
  <line class="cls-1" x1="335.49" y1=".16" x2="317.73" y2="54.09"/>
  <line class="cls-1" x1="36.9" y1="761.32" x2=".48" y2="838.6"/>
  <line class="cls-1" x1="389.58" y1="12.95" x2="353.52" y2="89.47"/>
  <line class="cls-1" x1="36.9" y1="668.67" x2=".48" y2="724.62"/>
  <line class="cls-1" x1="389.58" y1="126.93" x2="353.52" y2="182.32"/>
  <line class="cls-1" x1="36.9" y1="601.74" x2=".48" y2="642.33"/>
  <line class="cls-1" x1="389.58" y1="208.66" x2="353.52" y2="248.85"/>
  <line class="cls-1" x1="36.9" y1="549.98" x2=".48" y2="578.39"/>
  <line class="cls-1" x1="389.58" y1="274.82" x2="353.52" y2="302.95"/>
  <line class="cls-1" x1="36.9" y1="503.52" x2=".48" y2="521.68"/>
  <line class="cls-1" x1="389.58" y1="327.64" x2="353.52" y2="345.62"/>
  <line class="cls-1" x1="36.9" y1="463.27" x2=".12" y2="472.2"/>
  <line class="cls-1" x1="389.58" y1="377.68" x2="353.52" y2="386.43"/>
  <rect class="cls-1" x="36.54" y="53.54" width="316.62" height="743.92"/>
</svg>