<?xml version="1.0" encoding="UTF-8"?>
<svg id="Lag_2" data-name="Lag 2" xmlns="http://www.w3.org/2000/svg" viewBox="0 0 1920.75 1081.6">
  <defs>
    <style>
      .cls-1 {
        fill: none;
        stroke: #000d3f;
        stroke-miterlimit: 10;
      }
    </style>
  </defs>
  <line class="cls-1" x1="960.94" y1="1081.6" x2="960.94" y2="980.1"/>
  <line class="cls-1" x1="960.94" y1="102.1" x2="960.94" y2=".6"/>
  <line class="cls-1" x1="866.6" y1="980.1" x2="846.45" y2="1080.1"/>
  <line class="cls-1" x1="1064.05" y1=".1" x2="1043.51" y2="102.1"/>
  <line class="cls-1" x1="772.71" y1="980.1" x2="731.32" y2="1080.1"/>
  <line class="cls-1" x1="1177.92" y1="1.1" x2="1136.12" y2="102.1"/>
  <line class="cls-1" x1="669.53" y1="980.1" x2="604.8" y2="1080.1"/>
  <line class="cls-1" x1="1303.17" y1="1.1" x2="1237.8" y2="102.1"/>
  <line class="cls-1" x1="548.47" y1="980.1" x2="456.78" y2="1080.1"/>
  <line class="cls-1" x1="1446.13" y1="1.1" x2="1353.52" y2="102.1"/>
  <line class="cls-1" x1="398.11" y1="980.1" x2="272.07" y2="1080.1"/>
  <line class="cls-1" x1="1632.11" y1="1.1" x2="1504.79" y2="102.1"/>
  <line class="cls-1" x1="189.12" y1="980.1" x2="15.24" y2="1080.1"/>
  <line class="cls-1" x1="1891.46" y1="1.1" x2="1715.83" y2="102.1"/>
  <line class="cls-1" x1="105.07" y1="882.48" x2="1.33" y2="924.1"/>
  <line class="cls-1" x1="1920.56" y1="154.1" x2="1797.84" y2="203.34"/>
  <line class="cls-1" x1="105.07" y1="759.51" x2="1.33" y2="786.1"/>
  <line class="cls-1" x1="1920.56" y1="294.1" x2="1797.84" y2="325.56"/>
  <line class="cls-1" x1="105.07" y1="647.87" x2=".06" y2="661.1"/>
  <line class="cls-1" x1="1920.56" y1="419.1" x2="1797.84" y2="434.56"/>
  <line class="cls-1" x1="105.07" y1="541.05" x2=".06" y2="541.1"/>
  <line class="cls-1" x1="1920.56" y1="540.1" x2="1799.1" y2="540.16"/>
  <line class="cls-1" x1="105.07" y1="436.07" x2="1.33" y2="423.1"/>
  <line class="cls-1" x1="1920.56" y1="663.1" x2="1799.1" y2="647.91"/>
  <line class="cls-1" x1="105.07" y1="322.69" x2="1.33" y2="296.1"/>
  <line class="cls-1" x1="1920.56" y1="788.1" x2="1799.1" y2="756.64"/>
  <line class="cls-1" x1="105.07" y1="201.72" x2="1.33" y2="160.1"/>
  <line class="cls-1" x1="1920.56" y1="930.1" x2="1799.1" y2="881.36"/>
  <line class="cls-1" x1="188.57" y1="102.1" x2="12.71" y2="1.1"/>
  <line class="cls-1" x1="1891.46" y1="1080.1" x2="1717.34" y2="980.1"/>
  <line class="cls-1" x1="399.38" y1="102.1" x2="272.07" y2="1.1"/>
  <line class="cls-1" x1="1632.11" y1="1080.1" x2="1506.06" y2="980.1"/>
  <line class="cls-1" x1="551.68" y1="102.1" x2="459.31" y2="1.1"/>
  <line class="cls-1" x1="1446.13" y1="1080.1" x2="1354.67" y2="980.1"/>
  <line class="cls-1" x1="669.46" y1="102.1" x2="604.8" y2="1.1"/>
  <line class="cls-1" x1="1295.58" y1="1080.1" x2="1231.56" y2="980.1"/>
  <line class="cls-1" x1="775.18" y1="102.1" x2="733.85" y2="1.1"/>
  <line class="cls-1" x1="1175.39" y1="1080.1" x2="1134.47" y2="980.1"/>
  <line class="cls-1" x1="866.76" y1="102.1" x2="846.45" y2=".1"/>
  <line class="cls-1" x1="1061.52" y1="1080.1" x2="1041.61" y2="980.1"/>
  <rect class="cls-1" x="105.07" y="102.1" width="1694.03" height="878"/>
</svg>