<?xml version="1.0" encoding="UTF-8"?>
<svg id="Lag_1" data-name="Lag 1" xmlns="http://www.w3.org/2000/svg" viewBox="0 0 963.44 1083.05">
  <defs>
    <style>
      .cls-1 {
        fill: none;
        stroke: #000d3f;
        stroke-miterlimit: 10;
      }
    </style>
  </defs>
  <line class="cls-1" x1="481.94" y1="1083.05" x2="481.94" y2="981.41"/>
  <line class="cls-1" x1="481.94" y1="102.19" x2="481.94" y2=".55"/>
  <line class="cls-1" x1="434.63" y1="981.41" x2="424.53" y2="1081.55"/>
  <line class="cls-1" x1="533.64" y1=".05" x2="523.34" y2="102.19"/>
  <line class="cls-1" x1="387.55" y1="981.41" x2="366.8" y2="1081.55"/>
  <line class="cls-1" x1="590.74" y1="1.05" x2="569.78" y2="102.19"/>
  <line class="cls-1" x1="335.82" y1="981.41" x2="303.36" y2="1081.55"/>
  <line class="cls-1" x1="653.54" y1="1.05" x2="620.76" y2="102.19"/>
  <line class="cls-1" x1="275.11" y1="981.41" x2="229.14" y2="1081.55"/>
  <line class="cls-1" x1="725.23" y1="1.05" x2="678.79" y2="102.19"/>
  <line class="cls-1" x1="199.72" y1="981.41" x2="136.52" y2="1081.55"/>
  <line class="cls-1" x1="818.48" y1="1.05" x2="754.64" y2="102.19"/>
  <line class="cls-1" x1="94.92" y1="981.41" x2="7.73" y2="1081.55"/>
  <line class="cls-1" x1="948.53" y1="1.05" x2="860.46" y2="102.19"/>
  <line class="cls-1" x1="52.78" y1="883.65" x2=".76" y2="925.33"/>
  <line class="cls-1" x1="963.12" y1="154.26" x2="902.17" y2="203.23"/>
  <line class="cls-1" x1="52.78" y1="760.51" x2=".76" y2="787.14"/>
  <line class="cls-1" x1="963.12" y1="294.46" x2="902.17" y2="325.4"/>
  <line class="cls-1" x1="52.78" y1="648.72" x2=".12" y2="661.97"/>
  <line class="cls-1" x1="963.12" y1="419.63" x2="902.17" y2="434.55"/>
  <line class="cls-1" x1="52.78" y1="541.75" x2=".12" y2="541.8"/>
  <line class="cls-1" x1="963.12" y1="540.8" x2="902.22" y2="540.86"/>
  <line class="cls-1" x1="52.78" y1="436.62" x2=".76" y2="423.64"/>
  <line class="cls-1" x1="963.12" y1="663.97" x2="902.22" y2="648.76"/>
  <line class="cls-1" x1="52.78" y1="323.09" x2=".76" y2="296.46"/>
  <line class="cls-1" x1="963.12" y1="789.14" x2="902.22" y2="757.64"/>
  <line class="cls-1" x1="52.78" y1="201.95" x2=".76" y2="160.27"/>
  <line class="cls-1" x1="963.12" y1="931.34" x2="902.22" y2="882.54"/>
  <line class="cls-1" x1="94.65" y1="102.19" x2="6.47" y2="1.05"/>
  <line class="cls-1" x1="948.53" y1="1081.55" x2="861.22" y2="981.41"/>
  <line class="cls-1" x1="200.35" y1="102.19" x2="136.52" y2="1.05"/>
  <line class="cls-1" x1="818.48" y1="1081.55" x2="755.28" y2="981.41"/>
  <line class="cls-1" x1="276.72" y1="102.19" x2="230.4" y2="1.05"/>
  <line class="cls-1" x1="725.23" y1="1081.55" x2="679.37" y2="981.41"/>
  <line class="cls-1" x1="335.78" y1="102.19" x2="303.36" y2="1.05"/>
  <line class="cls-1" x1="649.74" y1="1081.55" x2="617.64" y2="981.41"/>
  <line class="cls-1" x1="388.79" y1="102.19" x2="368.07" y2="1.05"/>
  <line class="cls-1" x1="589.47" y1="1081.55" x2="568.95" y2="981.41"/>
  <line class="cls-1" x1="434.71" y1="102.19" x2="424.53" y2=".05"/>
  <line class="cls-1" x1="532.37" y1="1081.55" x2="522.39" y2="981.41"/>
  <rect class="cls-1" x="52.78" y="102.19" width="849.44" height="879.22"/>
</svg>